<svg xmlns="http://www.w3.org/2000/svg" width="9.917" height="21.347" viewBox="0 0 9.917 21.347">
  <g id="Group_4159" data-name="Group 4159" transform="translate(-333.079 -672.998)">
    <g id="Group_4158" data-name="Group 4158" transform="translate(333.079 672.998)">
      <path id="Path_10397" data-name="Path 10397" d="M335.264,683.756v10.321a.269.269,0,0,0,.269.268h3.832a.269.269,0,0,0,.269-.268V683.587h2.779a.269.269,0,0,0,.268-.246l.267-3.16a.269.269,0,0,0-.268-.292h-3.046v-2.242a.952.952,0,0,1,.952-.952h2.142a.269.269,0,0,0,.269-.269v-3.16a.269.269,0,0,0-.269-.269h-3.618a3.845,3.845,0,0,0-3.845,3.845v3.047h-1.916a.269.269,0,0,0-.269.269v3.16a.269.269,0,0,0,.269.268h1.916Z" transform="translate(-333.079 -672.998)" fill="#fff" fill-rule="evenodd"/>
    </g>
  </g>
</svg>
