<svg xmlns="http://www.w3.org/2000/svg" width="27.889" height="17.748" viewBox="0 0 27.889 17.748">
  <g id="Group_4165" data-name="Group 4165" transform="translate(-281.808 -246.528)">
    <g id="Group_4164" data-name="Group 4164" transform="translate(281.808 246.528)">
      <g id="Group_4163" data-name="Group 4163">
        <g id="Group_4162" data-name="Group 4162">
          <path id="Path_10401" data-name="Path 10401" d="M290.682,254.134v3.043h5.033a4.793,4.793,0,0,1-5.033,3.828,5.6,5.6,0,0,1,0-11.207,4.994,4.994,0,0,1,3.537,1.37l2.409-2.32a8.505,8.505,0,0,0-5.945-2.32,8.874,8.874,0,0,0,0,17.748c5.121,0,8.519-3.6,8.519-8.671a8.2,8.2,0,0,0-.139-1.471Z" transform="translate(-281.808 -246.528)" fill="#fff"/>
          <path id="Path_10402" data-name="Path 10402" d="M327.979,258.7h-2.536v-2.535h-2.535V258.7h-2.535v2.536h2.535v2.535h2.535V261.24h2.536Z" transform="translate(-300.09 -251.098)" fill="#fff"/>
        </g>
      </g>
    </g>
  </g>
</svg>
