<svg xmlns="http://www.w3.org/2000/svg" width="13.786" height="15.518" viewBox="0 0 13.786 15.518">
  <g id="noun_Next_69375" transform="translate(-16.216 -16.042)">
    <path id="Path_1572" data-name="Path 1572" d="M46.313,44.767a.748.748,0,0,1-.555-1.247l5.858-6.512L45.758,30.5a.748.748,0,0,1,1.111-1l6.31,7.011a.752.752,0,0,1,0,1L46.87,44.52a.752.752,0,0,1-.556.247Z" transform="translate(-23.368 -13.207)" fill="#c4851a"/>
    <path id="Path_1573" data-name="Path 1573" d="M30.313,44.767a.748.748,0,0,1-.555-1.247l5.858-6.512L29.758,30.5a.748.748,0,1,1,1.111-1l6.31,7.011a.752.752,0,0,1,0,1L30.87,44.52A.752.752,0,0,1,30.313,44.767Z" transform="translate(-13.35 -13.207)" fill="#c4851a"/>
  </g>
</svg>
