<svg xmlns="http://www.w3.org/2000/svg" width="16.942" height="16.913" viewBox="0 0 16.942 16.913">
  <g id="noun_seach_2944069" transform="translate(-9.7 -9.6)">
    <path id="Path_9997" data-name="Path 9997" d="M22.64,20.762a8.581,8.581,0,0,0,.719-1.286,7,7,0,0,0,0-5.524,7.452,7.452,0,0,0-1.513-2.27,6.639,6.639,0,0,0-2.27-1.513,7,7,0,0,0-5.524,0,7.452,7.452,0,0,0-2.27,1.513,6.639,6.639,0,0,0-1.513,2.27,7,7,0,0,0,0,5.524,7.452,7.452,0,0,0,1.513,2.27,6.639,6.639,0,0,0,2.27,1.513,7,7,0,0,0,5.524,0,6.18,6.18,0,0,0,1.286-.719l3.595,3.595a1.279,1.279,0,0,0,1.816,0,1.256,1.256,0,0,0,0-1.778Zm-2.535.757a5.9,5.9,0,0,1-3.33,1.059A5.846,5.846,0,1,1,22.6,16.713a5.631,5.631,0,0,1-1.059,3.33A4.857,4.857,0,0,1,20.105,21.519Z" fill="#002f4b"/>
  </g>
</svg>
