<svg xmlns="http://www.w3.org/2000/svg" width="36.025" height="45.658" viewBox="0 0 36.025 45.658">
  <path id="Path_10189" data-name="Path 10189" d="M52.1,43.839a1.058,1.058,0,0,1-1.06,1.06H25.612a5.106,5.106,0,0,0-5.086,4.846,4.978,4.978,0,0,0,2.693.787H49.971v-3.42a1.063,1.063,0,0,1,2.127,0V51.6a1.058,1.058,0,0,1-1.06,1.06H23.219a7.164,7.164,0,0,1-7.146-7.146V18.186a7.164,7.164,0,0,1,5.52-6.953V8.06A1.058,1.058,0,0,1,22.652,7h8.606a1.064,1.064,0,0,1,1.067,1.06v2.98H51.037A1.058,1.058,0,0,1,52.1,12.1V43.839ZM30.2,9.127h-6.48V34.606c3.72-4.247,2.78-4.3,6.48-.027Z" transform="translate(-16.072 -7)" fill="#002f4b"/>
</svg>
