<svg xmlns="http://www.w3.org/2000/svg" width="14.438" height="18.115" viewBox="0 0 14.438 18.115">
  <g id="Group_4216" data-name="Group 4216" transform="translate(-799.562 -1228.543)">
    <path id="Path_2389" data-name="Path 2389" d="M14.9,7.584l.008-.013a1.155,1.155,0,0,0,.1-.188l.006-.015a1.15,1.15,0,0,0,.059-.2l0-.012a1.172,1.172,0,0,0,.02-.212h0a1.172,1.172,0,0,0-.02-.212l0-.012a1.134,1.134,0,0,0-.059-.2L15.006,6.5a1.142,1.142,0,0,0-.1-.187L14.9,6.3a1.144,1.144,0,0,0-.145-.178h0L8.97.339A1.158,1.158,0,1,0,7.332,1.977l3.807,3.807H1.158a1.158,1.158,0,1,0,0,2.316h9.98L7.332,11.907A1.158,1.158,0,1,0,8.97,13.545l5.784-5.784h0A1.186,1.186,0,0,0,14.9,7.584Z" transform="translate(813.446 1228.543) rotate(90)" fill="#002f4b"/>
    <rect id="Rectangle_127" data-name="Rectangle 127" width="14" height="2" rx="1" transform="translate(800 1244.658)" fill="#002f4b"/>
  </g>
</svg>
