<svg xmlns="http://www.w3.org/2000/svg" width="14.5" height="10.875" viewBox="0 0 14.5 10.875">
  <g id="noun_Mail_1726891" transform="translate(153.5 73.875)">
    <g id="Group_3398" data-name="Group 3398" transform="translate(-157.5 -82.875)">
      <path id="Path_10181" data-name="Path 10181" d="M11.42,21.622a.4.4,0,0,1-.17.036.46.46,0,0,1-.17-.033L4,18.62V24.2a1.812,1.812,0,0,0,1.813,1.813H16.688A1.812,1.812,0,0,0,18.5,24.2V18.62Z" transform="translate(0 -6.133)" fill="#707070"/>
      <path id="Path_10182" data-name="Path 10182" d="M11.25,14.612l7.25-3.074v-.725A1.812,1.812,0,0,0,16.688,9H5.813A1.813,1.813,0,0,0,4,10.813v.725Z" fill="#707070"/>
    </g>
  </g>
</svg>
