<svg xmlns="http://www.w3.org/2000/svg" width="11.522" height="21.031" viewBox="0 0 11.522 21.031">
  <g id="noun_Phone_1098910" transform="translate(-63 -5.24)">
    <path id="Path_10180" data-name="Path 10180" d="M35.578,5.24H26.9a1.426,1.426,0,0,0-1.422,1.422V24.849A1.426,1.426,0,0,0,26.9,26.272h8.677A1.427,1.427,0,0,0,37,24.849V6.662A1.427,1.427,0,0,0,35.578,5.24ZM31.24,25.048a.888.888,0,1,1,.888-.888A.89.89,0,0,1,31.24,25.048Zm4.893-2.683H26.347V7.092h9.786Z" transform="translate(37.521)" fill="#707070" fill-rule="evenodd"/>
  </g>
</svg>
