<svg xmlns="http://www.w3.org/2000/svg" width="8.194" height="17.637" viewBox="0 0 8.194 17.637">
  <g id="Group_3396" data-name="Group 3396" transform="translate(-333.079 -672.998)">
    <g id="Group_3395" data-name="Group 3395" transform="translate(333.079 672.998)">
      <path id="Path_10178" data-name="Path 10178" d="M334.884,681.886v8.527a.222.222,0,0,0,.222.222h3.166a.222.222,0,0,0,.222-.222v-8.666h2.3a.222.222,0,0,0,.221-.2l.221-2.611a.222.222,0,0,0-.221-.241H338.5v-1.852a.786.786,0,0,1,.786-.786h1.769a.222.222,0,0,0,.222-.222V673.22a.222.222,0,0,0-.222-.222h-2.99a3.177,3.177,0,0,0-3.177,3.176v2.517H333.3a.222.222,0,0,0-.222.222v2.611a.222.222,0,0,0,.222.222h1.583Z" transform="translate(-333.079 -672.998)" fill="#707070" fill-rule="evenodd"/>
    </g>
  </g>
</svg>
