<svg xmlns="http://www.w3.org/2000/svg" width="16.667" height="16.666" viewBox="0 0 16.667 16.666">
  <g id="Group_3400" data-name="Group 3400" transform="translate(-554.134 -723.403)">
    <g id="Group_3399" data-name="Group 3399" transform="translate(554.134 723.403)">
      <path id="Path_10183" data-name="Path 10183" d="M563.228,723.436a8.334,8.334,0,1,0,7.539,7.539A8.342,8.342,0,0,0,563.228,723.436Zm4.719,4.193a6.809,6.809,0,0,1,1.36,3.743.128.128,0,0,1-.154.13,12.543,12.543,0,0,0-4.329-.168.126.126,0,0,1-.134-.077q-.233-.554-.476-1.069a.125.125,0,0,1,.063-.168,11.568,11.568,0,0,0,3.478-2.4A.128.128,0,0,1,567.947,727.63Zm-1.222-1.076a10.049,10.049,0,0,1-3.125,2.162.13.13,0,0,1-.165-.057,26.34,26.34,0,0,0-2.255-3.464.128.128,0,0,1,.078-.2,6.838,6.838,0,0,1,5.456,1.37A.131.131,0,0,1,566.725,726.554Zm-7.108-.942a23.918,23.918,0,0,1,2.393,3.524.13.13,0,0,1-.075.188,24.8,24.8,0,0,1-5.96.822.13.13,0,0,1-.131-.161,6.88,6.88,0,0,1,3.619-4.406A.127.127,0,0,1,559.618,725.612Zm-3.875,6.024a25.8,25.8,0,0,0,6.925-1,.127.127,0,0,1,.153.066c.131.275.261.561.388.854a.128.128,0,0,1-.078.172,12.346,12.346,0,0,0-5.812,4.3.129.129,0,0,1-.194.01,6.457,6.457,0,0,1-1.506-4.27A.128.128,0,0,1,555.743,731.637Zm2.641,5.43a10.892,10.892,0,0,1,5.309-3.96.129.129,0,0,1,.16.08,26.193,26.193,0,0,1,1.214,4.779.13.13,0,0,1-.079.141,6.834,6.834,0,0,1-6.579-.855A.131.131,0,0,1,558.384,737.067Zm8.038.029a27.609,27.609,0,0,0-1.1-4.175.127.127,0,0,1,.107-.169,11.483,11.483,0,0,1,3.637.248.131.131,0,0,1,.1.154,6.86,6.86,0,0,1-2.546,4.023A.128.128,0,0,1,566.422,737.1Z" transform="translate(-554.134 -723.403)" fill="#707070"/>
    </g>
  </g>
</svg>
