<svg xmlns="http://www.w3.org/2000/svg" width="53.52" height="53.614" viewBox="0 0 53.52 53.614">
  <g id="Group_60" data-name="Group 60" transform="translate(-635.21 -117.364)">
    <g id="Group_32" data-name="Group 32" transform="translate(635.21 117.364)">
      <g id="Group_11" data-name="Group 11" transform="translate(0.975 28.341)">
        <g id="Group_1" data-name="Group 1" transform="translate(18.42 21.279)">
          <path id="Path_1" data-name="Path 1" d="M671.32,215.451c.062-.011.157-.03.27-.062.838-.237,1.118-.75,1.5-.979a1.87,1.87,0,0,1,1.338-.11,1.344,1.344,0,0,0-.815.211c-.287.21-.475.628-1.117.884-.086.034-.159.057-.207.071a3.241,3.241,0,0,0,1.5.1,1.151,1.151,0,0,1-.1.076C673.342,215.857,672.682,215.956,671.32,215.451Z" transform="translate(-671.32 -211.823)" fill="#fff"/>
          <path id="Path_2" data-name="Path 2" d="M673,209.743c.05.039.125.1.209.182a4.366,4.366,0,0,1,.867,1.57,1.869,1.869,0,0,0,1.13.726,1.349,1.349,0,0,1-.621-.569,3.6,3.6,0,0,0-.571-1.3c-.06-.07-.114-.125-.15-.161a3.25,3.25,0,0,1,1.375.618,1.094,1.094,0,0,0-.056-.115C674.98,210.333,674.443,209.937,673,209.743Z" transform="translate(-672.099 -209.743)" fill="#fff"/>
        </g>
        <g id="Group_2" data-name="Group 2" transform="translate(13.042 19.427)">
          <path id="Path_3" data-name="Path 3" d="M661.307,211.972a2.751,2.751,0,0,0,.277-.014,4.365,4.365,0,0,0,1.649-.7,1.869,1.869,0,0,1,1.337.123,1.342,1.342,0,0,0-.839.067,3.627,3.627,0,0,1-1.254.677c-.09.019-.167.029-.216.034a3.247,3.247,0,0,0,1.464.358,1.218,1.218,0,0,1-.115.056C663.228,212.723,662.562,212.706,661.307,211.972Z" transform="translate(-661.307 -208.556)" fill="#fff"/>
          <path id="Path_4" data-name="Path 4" d="M664.135,206.294c.042.047.106.121.175.215a4.359,4.359,0,0,1,.582,1.7,1.873,1.873,0,0,0,.987.91,1.343,1.343,0,0,1-.513-.668,3.616,3.616,0,0,0-.337-1.384c-.047-.08-.09-.143-.12-.184a3.243,3.243,0,0,1,1.247.847,1.035,1.035,0,0,0-.035-.123C665.979,207.217,665.52,206.734,664.135,206.294Z" transform="translate(-662.616 -206.294)" fill="#fff"/>
        </g>
        <g id="Group_3" data-name="Group 3" transform="translate(10.45 17.982)">
          <path id="Path_5" data-name="Path 5" d="M656.481,209.114c.063.008.16.019.276.023a4.372,4.372,0,0,0,1.729-.478,1.866,1.866,0,0,1,1.308.3,1.345,1.345,0,0,0-.841-.046,3.605,3.605,0,0,1-1.333.5c-.092.007-.169.006-.219.005a3.253,3.253,0,0,0,1.4.551,1.207,1.207,0,0,1-.121.04C658.285,210.114,657.627,210.007,656.481,209.114Z" transform="translate(-656.481 -205.931)" fill="#fff"/>
          <path id="Path_6" data-name="Path 6" d="M660.132,203.6a2.676,2.676,0,0,1,.145.236,4.361,4.361,0,0,1,.351,1.759,1.868,1.868,0,0,0,.857,1.033,1.345,1.345,0,0,1-.419-.731,3.618,3.618,0,0,0-.149-1.416c-.036-.085-.07-.154-.094-.2a3.252,3.252,0,0,1,1.123,1.006,1.247,1.247,0,0,0-.019-.127C661.837,204.765,661.446,204.225,660.132,203.6Z" transform="translate(-658.171 -203.604)" fill="#fff"/>
        </g>
        <g id="Group_4" data-name="Group 4" transform="translate(15.757 20.558)">
          <path id="Path_7" data-name="Path 7" d="M666.361,214.122a2.6,2.6,0,0,0,.273-.043,4.349,4.349,0,0,0,1.567-.872,1.871,1.871,0,0,1,1.342-.016,1.345,1.345,0,0,0-.828.154,3.613,3.613,0,0,1-1.176.8c-.088.028-.163.046-.212.057a3.251,3.251,0,0,0,1.494.2,1.153,1.153,0,0,1-.109.068C668.349,214.669,667.685,214.721,666.361,214.122Z" transform="translate(-666.361 -210.567)" fill="#fff"/>
          <path id="Path_8" data-name="Path 8" d="M668.512,208.4a2.743,2.743,0,0,1,.2.2,4.368,4.368,0,0,1,.755,1.626,1.872,1.872,0,0,0,1.076.8,1.345,1.345,0,0,1-.579-.612,3.612,3.612,0,0,0-.479-1.341c-.055-.074-.1-.133-.138-.17a3.245,3.245,0,0,1,1.328.713,1.128,1.128,0,0,0-.048-.119C670.443,209.127,669.935,208.694,668.512,208.4Z" transform="translate(-667.357 -208.4)" fill="#fff"/>
        </g>
        <g id="Group_5" data-name="Group 5" transform="translate(8.028 16.257)">
          <path id="Path_9" data-name="Path 9" d="M651.972,205.575a2.719,2.719,0,0,0,.27.064,4.36,4.36,0,0,0,1.78-.214,1.867,1.867,0,0,1,1.249.493,1.343,1.343,0,0,0-.825-.171,3.616,3.616,0,0,1-1.392.3c-.092-.007-.168-.019-.218-.027a3.238,3.238,0,0,0,1.305.754,1.162,1.162,0,0,1-.127.022C653.606,206.834,652.971,206.631,651.972,205.575Z" transform="translate(-651.972 -202.721)" fill="#fff"/>
          <path id="Path_10" data-name="Path 10" d="M656.467,200.394c.027.057.068.146.107.255a4.357,4.357,0,0,1,.084,1.791,1.872,1.872,0,0,0,.693,1.15,1.346,1.346,0,0,1-.305-.785,3.613,3.613,0,0,0,.064-1.423c-.023-.09-.047-.163-.063-.21a3.249,3.249,0,0,1,.96,1.162,1.117,1.117,0,0,0,0-.128C657.979,201.8,657.673,201.2,656.467,200.394Z" transform="translate(-654.053 -200.394)" fill="#fff"/>
        </g>
        <g id="Group_6" data-name="Group 6" transform="translate(5.908 14.363)">
          <path id="Path_11" data-name="Path 11" d="M648.025,201.489a2.753,2.753,0,0,0,.258.1,4.361,4.361,0,0,0,1.793.041,1.872,1.872,0,0,1,1.166.665,1.345,1.345,0,0,0-.792-.286,3.611,3.611,0,0,1-1.421.1c-.09-.02-.163-.043-.211-.059a3.246,3.246,0,0,0,1.185.932,1.147,1.147,0,0,1-.128,0C649.464,202.967,648.864,202.676,648.025,201.489Z" transform="translate(-648.025 -199.007)" fill="#fff"/>
          <path id="Path_12" data-name="Path 12" d="M653.141,196.868c.019.061.046.154.07.268a4.362,4.362,0,0,1-.172,1.785,1.87,1.87,0,0,0,.523,1.236,1.347,1.347,0,0,1-.191-.821,3.6,3.6,0,0,0,.265-1.4,2.182,2.182,0,0,0-.033-.216,3.238,3.238,0,0,1,.785,1.286,1.033,1.033,0,0,0,.019-.127C654.438,198.471,654.22,197.841,653.141,196.868Z" transform="translate(-650.345 -196.868)" fill="#fff"/>
        </g>
        <g id="Group_7" data-name="Group 7" transform="translate(3.921 12.18)">
          <path id="Path_13" data-name="Path 13" d="M644.326,196.922c.055.031.141.077.247.125a4.365,4.365,0,0,0,1.781.207,1.865,1.865,0,0,1,1.1.77,1.344,1.344,0,0,0-.762-.359,3.608,3.608,0,0,1-1.424-.034c-.088-.028-.159-.057-.205-.077a3.25,3.25,0,0,0,1.093,1.037,1.019,1.019,0,0,1-.128-.008C645.621,198.527,645.051,198.181,644.326,196.922Z" transform="translate(-644.326 -194.71)" fill="#fff"/>
          <path id="Path_14" data-name="Path 14" d="M649.676,192.8c.013.062.032.157.045.273a4.365,4.365,0,0,1-.337,1.761,1.873,1.873,0,0,0,.406,1.28,1.343,1.343,0,0,1-.113-.835,3.611,3.611,0,0,0,.394-1.369c0-.092-.007-.169-.012-.219a3.253,3.253,0,0,1,.662,1.354,1.139,1.139,0,0,0,.03-.125C650.819,194.52,650.66,193.872,649.676,192.8Z" transform="translate(-646.662 -192.803)" fill="#fff"/>
        </g>
        <g id="Group_8" data-name="Group 8" transform="translate(2.289 9.787)">
          <path id="Path_15" data-name="Path 15" d="M641.287,191.551c.05.04.127.1.225.162a4.365,4.365,0,0,0,1.728.479,1.87,1.87,0,0,1,.967.931,1.341,1.341,0,0,0-.7-.472,3.618,3.618,0,0,1-1.4-.254c-.082-.041-.148-.081-.191-.108a3.243,3.243,0,0,0,.921,1.194,1.089,1.089,0,0,1-.126-.028C642.319,193.337,641.809,192.907,641.287,191.551Z" transform="translate(-641.287 -189.83)" fill="#fff"/>
          <path id="Path_16" data-name="Path 16" d="M646.9,188.347c0,.064.007.161,0,.277a4.363,4.363,0,0,1-.6,1.688,1.869,1.869,0,0,0,.2,1.327,1.343,1.343,0,0,1,.017-.842,3.616,3.616,0,0,0,.6-1.292,2.136,2.136,0,0,0,.021-.218,3.246,3.246,0,0,1,.446,1.44,1.143,1.143,0,0,0,.049-.119C647.769,190.22,647.712,189.556,646.9,188.347Z" transform="translate(-643.585 -188.347)" fill="#fff"/>
        </g>
        <g id="Group_9" data-name="Group 9" transform="translate(1.011 7.157)">
          <path id="Path_17" data-name="Path 17" d="M638.909,185.655c.043.047.11.117.2.194a4.364,4.364,0,0,0,1.632.742,1.868,1.868,0,0,1,.811,1.069,1.345,1.345,0,0,0-.616-.574,3.616,3.616,0,0,1-1.345-.469c-.075-.054-.134-.1-.172-.136a3.251,3.251,0,0,0,.723,1.322,1.1,1.1,0,0,1-.119-.047C639.651,187.579,639.214,187.076,638.909,185.655Z" transform="translate(-638.909 -184.471)" fill="#fff"/>
          <path id="Path_18" data-name="Path 18" d="M644.63,183.451c-.006.063-.018.16-.041.274a4.363,4.363,0,0,1-.859,1.574,1.871,1.871,0,0,0-.005,1.342,1.345,1.345,0,0,1,.147-.829,3.613,3.613,0,0,0,.794-1.182c.027-.089.045-.163.055-.213a3.257,3.257,0,0,1,.216,1.492,1.186,1.186,0,0,0,.067-.11C645.193,185.435,645.24,184.77,644.63,183.451Z" transform="translate(-641.084 -183.451)" fill="#fff"/>
        </g>
        <g id="Group_10" data-name="Group 10" transform="translate(0 4.269)">
          <path id="Path_19" data-name="Path 19" d="M637.026,179.508a2.738,2.738,0,0,0,.174.216,4.371,4.371,0,0,0,1.537.924,1.872,1.872,0,0,1,.683,1.155,1.349,1.349,0,0,0-.546-.641,3.612,3.612,0,0,1-1.283-.619c-.068-.062-.121-.118-.155-.155a3.247,3.247,0,0,0,.567,1.4,1.213,1.213,0,0,1-.113-.061C637.543,181.505,637.166,180.954,637.026,179.508Z" transform="translate(-637.026 -178.738)" fill="#fff"/>
          <path id="Path_20" data-name="Path 20" d="M642.71,178.075a2.764,2.764,0,0,1-.072.267c-.267.829-.79,1.089-1.034,1.465a1.868,1.868,0,0,0-.16,1.333,1.342,1.342,0,0,1,.241-.807c.22-.279.645-.452.924-1.084.037-.084.063-.157.079-.2a3.247,3.247,0,0,1,.044,1.507,1.219,1.219,0,0,0,.079-.1C643.042,180.111,643.165,179.455,642.71,178.075Z" transform="translate(-639.052 -178.075)" fill="#fff"/>
        </g>
        <path id="Path_21" data-name="Path 21" d="M677.216,214.338a6.537,6.537,0,0,0,3.17.092l.059.329a6.745,6.745,0,0,1-3.255-.342Z" transform="translate(-655.616 -190.591)" fill="#fff"/>
        <path id="Path_22" data-name="Path 22" d="M639.476,173.833c-.193-.457-.295-.561-.514-1.079-.121-.288-.207-.532-.26-.694a6.111,6.111,0,0,1-.1.728c-.1.514-.2.641-.313,1.144a6.244,6.244,0,0,0-.134.689,3.173,3.173,0,0,1-.283-.994,3.927,3.927,0,0,1,.167-1.333c.136-.582.245-.729.363-1.324a7.194,7.194,0,0,0,.116-.843c.062.187.161.47.3.8.253.6.371.72.595,1.248a4.333,4.333,0,0,1,.4,1.264,3.588,3.588,0,0,1-.064,1.123A5.71,5.71,0,0,0,639.476,173.833Z" transform="translate(-637.413 -170.127)" fill="#fff"/>
      </g>
      <g id="Group_22" data-name="Group 22" transform="translate(27.819 28.341)">
        <g id="Group_12" data-name="Group 12" transform="translate(3.265 21.279)">
          <path id="Path_23" data-name="Path 23" d="M696.252,215.451c-.063-.011-.158-.03-.27-.062-.839-.237-1.118-.75-1.5-.979a1.869,1.869,0,0,0-1.338-.11,1.345,1.345,0,0,1,.816.211c.287.21.475.628,1.117.884.086.034.16.057.208.071a3.244,3.244,0,0,1-1.5.1,1.1,1.1,0,0,0,.1.076C694.229,215.857,694.889,215.956,696.252,215.451Z" transform="translate(-693.109 -211.823)" fill="#fff"/>
          <path id="Path_24" data-name="Path 24" d="M695.319,209.743c-.05.039-.125.1-.21.182a4.363,4.363,0,0,0-.866,1.57,1.872,1.872,0,0,1-1.13.726,1.346,1.346,0,0,0,.621-.569,3.622,3.622,0,0,1,.571-1.3c.06-.07.114-.125.15-.161a3.248,3.248,0,0,0-1.375.618,1.225,1.225,0,0,1,.056-.115C693.343,210.333,693.879,209.937,695.319,209.743Z" transform="translate(-693.081 -209.743)" fill="#fff"/>
        </g>
        <g id="Group_13" data-name="Group 13" transform="translate(8.246 19.427)">
          <path id="Path_25" data-name="Path 25" d="M706.133,211.972a2.734,2.734,0,0,1-.276-.014,4.368,4.368,0,0,1-1.65-.7,1.868,1.868,0,0,0-1.336.123,1.343,1.343,0,0,1,.84.067,3.617,3.617,0,0,0,1.253.677c.09.019.166.029.216.034a3.243,3.243,0,0,1-1.464.358,1.2,1.2,0,0,0,.115.056C704.212,212.723,704.879,212.706,706.133,211.972Z" transform="translate(-702.593 -208.556)" fill="#fff"/>
          <path id="Path_26" data-name="Path 26" d="M704.375,206.294c-.042.047-.106.121-.175.215a4.364,4.364,0,0,0-.582,1.7,1.87,1.87,0,0,1-.987.91,1.346,1.346,0,0,0,.512-.668,3.619,3.619,0,0,1,.337-1.384c.047-.08.09-.143.119-.184a3.253,3.253,0,0,0-1.247.847,1.135,1.135,0,0,1,.035-.123C702.531,207.217,702.991,206.734,704.375,206.294Z" transform="translate(-702.354 -206.294)" fill="#fff"/>
        </g>
        <g id="Group_14" data-name="Group 14" transform="translate(10.605 17.982)">
          <path id="Path_27" data-name="Path 27" d="M710.916,209.114c-.063.008-.16.019-.276.023a4.371,4.371,0,0,1-1.729-.478,1.865,1.865,0,0,0-1.308.3,1.345,1.345,0,0,1,.841-.046,3.6,3.6,0,0,0,1.332.5c.092.007.169.006.219.005a3.253,3.253,0,0,1-1.4.551,1.249,1.249,0,0,0,.122.04C709.112,210.114,709.77,210.007,710.916,209.114Z" transform="translate(-707.143 -205.931)" fill="#fff"/>
          <path id="Path_28" data-name="Path 28" d="M708.558,203.6a2.725,2.725,0,0,0-.144.236,4.356,4.356,0,0,0-.35,1.759,1.873,1.873,0,0,1-.857,1.033,1.351,1.351,0,0,0,.419-.731,3.612,3.612,0,0,1,.149-1.416c.035-.085.07-.154.094-.2a3.25,3.25,0,0,0-1.123,1.006,1.1,1.1,0,0,1,.018-.127C706.853,204.765,707.244,204.225,708.558,203.6Z" transform="translate(-706.746 -203.604)" fill="#fff"/>
        </g>
        <g id="Group_15" data-name="Group 15" transform="translate(5.757 20.558)">
          <path id="Path_29" data-name="Path 29" d="M701.148,214.122a2.605,2.605,0,0,1-.274-.043,4.353,4.353,0,0,1-1.567-.872,1.871,1.871,0,0,0-1.342-.016,1.348,1.348,0,0,1,.828.154,3.6,3.6,0,0,0,1.176.8c.088.028.163.046.212.057a3.25,3.25,0,0,1-1.493.2,1.163,1.163,0,0,0,.109.068C699.159,214.669,699.824,214.721,701.148,214.122Z" transform="translate(-697.833 -210.567)" fill="#fff"/>
          <path id="Path_30" data-name="Path 30" d="M699.879,208.4c-.047.042-.118.109-.2.2a4.369,4.369,0,0,0-.755,1.626,1.87,1.87,0,0,1-1.076.8,1.347,1.347,0,0,0,.58-.612,3.612,3.612,0,0,1,.479-1.341,2.179,2.179,0,0,1,.138-.17,3.245,3.245,0,0,0-1.328.713,1.105,1.105,0,0,1,.048-.119C697.949,209.127,698.456,208.694,699.879,208.4Z" transform="translate(-697.72 -208.4)" fill="#fff"/>
        </g>
        <g id="Group_16" data-name="Group 16" transform="translate(12.844 16.257)">
          <path id="Path_31" data-name="Path 31" d="M715.437,205.575a2.7,2.7,0,0,1-.269.064,4.362,4.362,0,0,1-1.781-.214,1.867,1.867,0,0,0-1.249.493,1.344,1.344,0,0,1,.825-.171,3.617,3.617,0,0,0,1.393.3c.092-.007.168-.019.218-.027a3.242,3.242,0,0,1-1.305.754,1.123,1.123,0,0,0,.126.022C713.8,206.834,714.437,206.631,715.437,205.575Z" transform="translate(-711.481 -202.721)" fill="#fff"/>
          <path id="Path_32" data-name="Path 32" d="M712.456,200.394c-.028.057-.068.146-.108.255a4.369,4.369,0,0,0-.084,1.791,1.871,1.871,0,0,1-.693,1.15,1.344,1.344,0,0,0,.305-.785,3.611,3.611,0,0,1-.063-1.423,2.01,2.01,0,0,1,.063-.21,3.239,3.239,0,0,0-.96,1.162,1.016,1.016,0,0,1,0-.128C710.944,201.8,711.25,201.2,712.456,200.394Z" transform="translate(-710.915 -200.394)" fill="#fff"/>
        </g>
        <g id="Group_17" data-name="Group 17" transform="translate(14.855 14.363)">
          <path id="Path_33" data-name="Path 33" d="M719.454,201.489a2.708,2.708,0,0,1-.258.1,4.359,4.359,0,0,1-1.792.041,1.871,1.871,0,0,0-1.166.665,1.345,1.345,0,0,1,.792-.286,3.607,3.607,0,0,0,1.421.1c.09-.02.164-.043.212-.059a3.25,3.25,0,0,1-1.185.932,1.138,1.138,0,0,0,.128,0C718.016,202.967,718.615,202.676,719.454,201.489Z" transform="translate(-715.389 -199.007)" fill="#fff"/>
          <path id="Path_34" data-name="Path 34" d="M715.927,196.868c-.019.061-.046.154-.07.268a4.361,4.361,0,0,0,.171,1.785,1.871,1.871,0,0,1-.522,1.236,1.344,1.344,0,0,0,.19-.821,3.606,3.606,0,0,1-.265-1.4c.01-.092.023-.168.033-.216a3.24,3.24,0,0,0-.785,1.286,1.15,1.15,0,0,1-.019-.127C714.63,198.471,714.849,197.841,715.927,196.868Z" transform="translate(-714.658 -196.868)" fill="#fff"/>
        </g>
        <g id="Group_18" data-name="Group 18" transform="translate(16.805 12.18)">
          <path id="Path_35" data-name="Path 35" d="M723.23,196.922a2.739,2.739,0,0,1-.247.125,4.364,4.364,0,0,1-1.781.207,1.869,1.869,0,0,0-1.1.77,1.344,1.344,0,0,1,.763-.359,3.606,3.606,0,0,0,1.423-.034c.088-.028.16-.057.205-.077a3.241,3.241,0,0,1-1.093,1.037,1.011,1.011,0,0,0,.128-.008C721.935,198.527,722.5,198.181,723.23,196.922Z" transform="translate(-719.128 -194.71)" fill="#fff"/>
          <path id="Path_36" data-name="Path 36" d="M719.376,192.8a2.692,2.692,0,0,0-.045.273,4.357,4.357,0,0,0,.336,1.761,1.869,1.869,0,0,1-.406,1.28,1.344,1.344,0,0,0,.114-.835,3.616,3.616,0,0,1-.394-1.369c0-.092.007-.169.012-.219a3.243,3.243,0,0,0-.662,1.354,1.051,1.051,0,0,1-.031-.125C718.234,194.52,718.393,193.872,719.376,192.8Z" transform="translate(-718.288 -192.803)" fill="#fff"/>
        </g>
        <g id="Group_19" data-name="Group 19" transform="translate(18.432 9.787)">
          <path id="Path_37" data-name="Path 37" d="M726.447,191.551c-.049.04-.127.1-.224.162a4.367,4.367,0,0,1-1.728.479,1.87,1.87,0,0,0-.968.931,1.339,1.339,0,0,1,.7-.472,3.615,3.615,0,0,0,1.4-.254c.082-.041.148-.081.191-.108a3.244,3.244,0,0,1-.92,1.194,1.07,1.07,0,0,0,.125-.028C725.416,193.337,725.925,192.907,726.447,191.551Z" transform="translate(-722.341 -189.83)" fill="#fff"/>
          <path id="Path_38" data-name="Path 38" d="M722.106,188.347c0,.064-.007.161,0,.277a4.364,4.364,0,0,0,.6,1.688,1.869,1.869,0,0,1-.2,1.327,1.342,1.342,0,0,0-.017-.842,3.617,3.617,0,0,1-.6-1.292c-.013-.091-.019-.168-.021-.218a3.243,3.243,0,0,0-.445,1.44,1.1,1.1,0,0,1-.049-.119C721.242,190.22,721.3,189.556,722.106,188.347Z" transform="translate(-721.318 -188.347)" fill="#fff"/>
        </g>
        <g id="Group_20" data-name="Group 20" transform="translate(19.771 7.157)">
          <path id="Path_39" data-name="Path 39" d="M729.067,185.655c-.043.047-.111.117-.2.194a4.371,4.371,0,0,1-1.632.742,1.865,1.865,0,0,0-.811,1.069,1.34,1.34,0,0,1,.616-.574,3.622,3.622,0,0,0,1.345-.469c.075-.054.134-.1.171-.136a3.251,3.251,0,0,1-.723,1.322,1.2,1.2,0,0,0,.119-.047C728.325,187.579,728.762,187.076,729.067,185.655Z" transform="translate(-725.022 -184.471)" fill="#fff"/>
          <path id="Path_40" data-name="Path 40" d="M724.31,183.451a2.764,2.764,0,0,0,.04.274,4.37,4.37,0,0,0,.859,1.574,1.867,1.867,0,0,1,.006,1.342,1.34,1.34,0,0,0-.148-.829,3.614,3.614,0,0,1-.794-1.182c-.027-.089-.045-.163-.055-.213a3.242,3.242,0,0,0-.216,1.492,1.111,1.111,0,0,1-.067-.11C723.748,185.435,723.7,184.77,724.31,183.451Z" transform="translate(-723.811 -183.451)" fill="#fff"/>
        </g>
        <g id="Group_21" data-name="Group 21" transform="translate(20.862 4.269)">
          <path id="Path_41" data-name="Path 41" d="M731.163,179.508a2.692,2.692,0,0,1-.173.216,4.365,4.365,0,0,1-1.537.924,1.869,1.869,0,0,0-.683,1.155,1.343,1.343,0,0,1,.546-.641,3.611,3.611,0,0,0,1.282-.619c.068-.062.121-.118.155-.155a3.246,3.246,0,0,1-.567,1.4,1.181,1.181,0,0,0,.113-.061C730.646,181.505,731.023,180.954,731.163,179.508Z" transform="translate(-727.197 -178.738)" fill="#fff"/>
          <path id="Path_42" data-name="Path 42" d="M726.149,178.075a2.746,2.746,0,0,0,.072.267c.268.829.791,1.089,1.034,1.465a1.873,1.873,0,0,1,.16,1.333,1.346,1.346,0,0,0-.242-.807c-.22-.279-.645-.452-.924-1.084a2.165,2.165,0,0,1-.079-.2,3.243,3.243,0,0,0-.044,1.507,1.076,1.076,0,0,1-.079-.1C725.817,180.111,725.694,179.455,726.149,178.075Z" transform="translate(-725.841 -178.075)" fill="#fff"/>
        </g>
        <path id="Path_43" data-name="Path 43" d="M690.231,214.338a6.539,6.539,0,0,1-3.171.092l-.059.329a6.743,6.743,0,0,0,3.254-.342Z" transform="translate(-687.002 -190.591)" fill="#fff"/>
        <path id="Path_44" data-name="Path 44" d="M729.076,173.833c.193-.457.295-.561.514-1.079.121-.288.207-.532.26-.694a6.361,6.361,0,0,0,.1.728c.1.514.2.641.314,1.144a6.231,6.231,0,0,1,.134.689,3.158,3.158,0,0,0,.283-.994,3.928,3.928,0,0,0-.167-1.333c-.136-.582-.244-.729-.363-1.324a7.221,7.221,0,0,1-.116-.843c-.062.187-.161.47-.3.8-.253.6-.37.72-.594,1.248a4.314,4.314,0,0,0-.4,1.264,3.575,3.575,0,0,0,.064,1.123A5.69,5.69,0,0,1,729.076,173.833Z" transform="translate(-706.311 -170.127)" fill="#fff"/>
      </g>
      <g id="Group_24" data-name="Group 24">
        <g id="Group_23" data-name="Group 23">
          <path id="Path_45" data-name="Path 45" d="M637.8,163.1l-.112,1.532,1.2.088A.193.193,0,0,0,639,164.7a.181.181,0,0,0,.069-.092l.078.006-.061.83-.078-.006a.157.157,0,0,0-.166-.137l-2.816-.206a.157.157,0,0,0-.184.112l-.078-.006.061-.829.078.006a.18.18,0,0,0,.055.1.207.207,0,0,0,.111.035l1.071.078.112-1.532-1.071-.079a.2.2,0,0,0-.115.019.173.173,0,0,0-.069.093l-.078-.006.061-.829.078.006a.2.2,0,0,0,.056.1.193.193,0,0,0,.11.035l2.816.206a.193.193,0,0,0,.114-.019.189.189,0,0,0,.07-.092l.078.006-.061.829-.078-.005a.174.174,0,0,0-.055-.1.2.2,0,0,0-.111-.037Z" transform="translate(-635.466 -138.143)" fill="#fff"/>
          <path id="Path_46" data-name="Path 46" d="M639.373,161.312l-2.785-.444a.2.2,0,0,0-.115.009.192.192,0,0,0-.078.087l-.077-.012.131-.821.077.012a.178.178,0,0,0,.046.106.2.2,0,0,0,.108.045l2.786.444a.2.2,0,0,0,.119-.01.183.183,0,0,0,.076-.085l.077.012-.131.821-.077-.012a.189.189,0,0,0-.048-.106A.2.2,0,0,0,639.373,161.312Z" transform="translate(-635.722 -137.159)" fill="#fff"/>
          <path id="Path_47" data-name="Path 47" d="M635.922,156.185l-.112.475-.064-.016a.115.115,0,0,0,0-.062.76.76,0,0,0-.07-.093l-.294-.338a.1.1,0,0,0-.055-.034c-.026-.007-.045.011-.055.053l-.064-.016.141-.6.064.015c0,.039.005.062.03.067a.123.123,0,0,0,.074-.014l.464-.191a.106.106,0,0,0,.068-.075l.065.016-.129.545-.064-.015c.006-.04,0-.063-.022-.067a.18.18,0,0,0-.062.017l-.283.1.211.234a.071.071,0,0,0,.039.027q.036.008.053-.045Zm1.985.927.888.209.394-1.668a.115.115,0,0,0-.012-.1.279.279,0,0,0-.107-.078l.014-.061.839.2-.015.061a.27.27,0,0,0-.13.021.116.116,0,0,0-.054.079l-.556,2.355-.076-.018a.185.185,0,0,0-.039-.109.193.193,0,0,0-.105-.053l-2.743-.648a.2.2,0,0,0-.118,0,.193.193,0,0,0-.084.081l-.076-.018.546-2.311a.112.112,0,0,0-.014-.1.286.286,0,0,0-.109-.078l.014-.061.839.2-.015.061a.269.269,0,0,0-.128.021.118.118,0,0,0-.054.079l-.383,1.623.77.182.249-1.053a.119.119,0,0,0-.013-.1.279.279,0,0,0-.107-.077l.014-.061.82.193-.014.061a.286.286,0,0,0-.129.021.113.113,0,0,0-.055.079Zm1.833-.223a.226.226,0,0,1,.133-.16.373.373,0,0,1,.245-.018.337.337,0,0,1,.194.122.222.222,0,0,1-.083.351.38.38,0,0,1-.436-.1A.234.234,0,0,1,639.74,156.889Z" transform="translate(-635.21 -134.704)" fill="#fff"/>
          <path id="Path_48" data-name="Path 48" d="M639.954,152.221l1.034.371a.2.2,0,0,0,.117.012.185.185,0,0,0,.091-.07l.074.026-.281.783-.074-.026a.156.156,0,0,0-.123-.177l-2.655-.953a.2.2,0,0,0-.117-.013.191.191,0,0,0-.092.07l-.074-.026.562-1.566a1.736,1.736,0,0,1,.2-.418.743.743,0,0,1,.261-.227.829.829,0,0,1,.379-.088,1.282,1.282,0,0,1,.444.078,1.17,1.17,0,0,1,.507.336.713.713,0,0,1,.179.415,1.466,1.466,0,0,1-.108.572Zm-.517-.186.3-.835a.723.723,0,0,0,.06-.375.327.327,0,0,0-.1-.154.586.586,0,0,0-.2-.115.569.569,0,0,0-.222-.035.316.316,0,0,0-.176.054.708.708,0,0,0-.192.327l-.3.836Z" transform="translate(-636.433 -132.433)" fill="#fff"/>
          <path id="Path_49" data-name="Path 49" d="M643.016,144.42l-.725,1.354,1.059.567a.2.2,0,0,0,.113.029.184.184,0,0,0,.1-.056l.069.037-.393.733-.069-.037a.2.2,0,0,0-.01-.117.2.2,0,0,0-.086-.077l-2.49-1.333a.157.157,0,0,0-.214.027l-.068-.037.393-.733.069.037a.174.174,0,0,0,.009.115.2.2,0,0,0,.087.078l.946.507.725-1.355-.946-.507a.2.2,0,0,0-.113-.03.173.173,0,0,0-.1.057l-.069-.037.393-.733.069.037a.157.157,0,0,0,.1.193l2.489,1.333a.2.2,0,0,0,.112.029.192.192,0,0,0,.1-.056l.069.037-.392.733-.069-.037a.183.183,0,0,0-.01-.114.193.193,0,0,0-.087-.079Z" transform="translate(-637.568 -129.189)" fill="#fff"/>
          <path id="Path_50" data-name="Path 50" d="M643.746,139.27l-.283.4-.054-.038a.122.122,0,0,0,.024-.057.835.835,0,0,0-.03-.112l-.145-.424a.1.1,0,0,0-.037-.053c-.023-.016-.046-.006-.071.028l-.054-.038.357-.5.054.038c-.018.035-.018.059,0,.074a.126.126,0,0,0,.074.014l.5,0a.1.1,0,0,0,.091-.044l.054.038-.325.457-.054-.039c.021-.035.023-.058.006-.07a.186.186,0,0,0-.064-.007l-.3-.012.106.3a.067.067,0,0,0,.026.039c.02.014.042.007.067-.022Zm.274-.01a1.387,1.387,0,0,1,1.024-.627,1.861,1.861,0,0,1,1.287.388,1.96,1.96,0,0,1,.607.686,1.5,1.5,0,0,1-1.13,2.172,1.7,1.7,0,0,1-.683-.079,2.107,2.107,0,0,1-.589-.3,2.034,2.034,0,0,1-.626-.7A1.386,1.386,0,0,1,644.021,139.26Zm.46.325a.82.82,0,0,0-.138.681,1.428,1.428,0,0,0,1.428,1.016.86.86,0,0,0,.739-1.039,1.144,1.144,0,0,0-.2-.426,1.448,1.448,0,0,0-.325-.318,1.263,1.263,0,0,0-.9-.272A.852.852,0,0,0,644.481,139.584Zm2.522,1.8a.222.222,0,0,1,.183-.1.368.368,0,0,1,.234.075.336.336,0,0,1,.134.186.222.222,0,0,1-.209.294.342.342,0,0,1-.226-.069.349.349,0,0,1-.14-.189A.234.234,0,0,1,647,141.382Z" transform="translate(-638.861 -127.134)" fill="#fff"/>
          <path id="Path_51" data-name="Path 51" d="M649.366,138.673l-2.154-1.82a.2.2,0,0,0-.1-.052.194.194,0,0,0-.111.034l-.06-.05.537-.635.06.05a.18.18,0,0,0-.016.115.2.2,0,0,0,.069.093l2.154,1.821a.2.2,0,0,0,.106.053.18.18,0,0,0,.11-.034l.06.05-.536.635-.06-.05a.193.193,0,0,0,.015-.115A.2.2,0,0,0,649.366,138.673Z" transform="translate(-640.638 -126.059)" fill="#fff"/>
          <path id="Path_52" data-name="Path 52" d="M653.019,133.016l.748.247-.006.067c-.056-.005-.092,0-.108.016a.622.622,0,0,0-.062.22,2.529,2.529,0,0,1-.184.626,1.6,1.6,0,0,1-.337.437,1.463,1.463,0,0,1-1.007.444,1.519,1.519,0,0,1-.644-.132,2.043,2.043,0,0,1-.675-.479,1.916,1.916,0,0,1-.521-.957,1.418,1.418,0,0,1,.468-1.373,1.591,1.591,0,0,1,.45-.315,2.557,2.557,0,0,1,.635-.154.638.638,0,0,0,.222-.053.149.149,0,0,0,.021-.108l.067,0,.212.759-.068,0c-.017-.021-.031-.037-.043-.051a.214.214,0,0,0-.127-.062.866.866,0,0,0-.229.011,1.252,1.252,0,0,0-.7.329.957.957,0,0,0-.33.709,1.351,1.351,0,0,0,1.206,1.264.955.955,0,0,0,.724-.3,1.251,1.251,0,0,0,.361-.682.849.849,0,0,0,.022-.228.211.211,0,0,0-.056-.13c-.012-.013-.028-.027-.047-.043Z" transform="translate(-642.145 -123.908)" fill="#fff"/>
          <path id="Path_53" data-name="Path 53" d="M654.885,127.944l-.392.29-.039-.053a.125.125,0,0,0,.041-.047.946.946,0,0,0,.006-.116l-.006-.448a.1.1,0,0,0-.019-.062c-.017-.022-.042-.02-.077.005l-.039-.053.5-.367.039.053c-.028.027-.035.051-.021.07a.125.125,0,0,0,.066.036l.478.154a.106.106,0,0,0,.1-.013l.039.053-.451.334-.039-.053c.031-.027.04-.048.027-.066a.187.187,0,0,0-.058-.027l-.282-.1.01.315a.066.066,0,0,0,.012.045c.015.02.038.02.07,0Zm.264.075a1.385,1.385,0,0,1,1.168-.279,1.865,1.865,0,0,1,1.1.767,1.986,1.986,0,0,1,.365.841,1.5,1.5,0,0,1-1.747,1.715,1.706,1.706,0,0,1-.625-.287,2.129,2.129,0,0,1-.468-.464,2.042,2.042,0,0,1-.379-.858A1.388,1.388,0,0,1,655.149,128.019Zm.337.452a.82.82,0,0,0-.342.605,1.426,1.426,0,0,0,1.043,1.408.859.859,0,0,0,1.024-.758,1.136,1.136,0,0,0-.06-.468,1.452,1.452,0,0,0-.211-.4,1.262,1.262,0,0,0-.771-.537A.848.848,0,0,0,655.486,128.471Z" transform="translate(-644.074 -121.868)" fill="#fff"/>
          <path id="Path_54" data-name="Path 54" d="M659.849,126.173l.986,1.769a.2.2,0,0,0,.08.086.186.186,0,0,0,.116.008l.038.068-.684.381-.038-.068a.194.194,0,0,0,.054-.1.2.2,0,0,0-.032-.114L659,125.738a.2.2,0,0,0-.078-.084.193.193,0,0,0-.117-.008l-.038-.068.791-.441.038.068a.109.109,0,0,0-.018.139.215.215,0,0,0,.111.086l2.214.953-.963-1.726a.155.155,0,0,0-.194-.093l-.039-.068.684-.381.038.068a.158.158,0,0,0-.024.214l1.374,2.464a.192.192,0,0,0,.08.086.188.188,0,0,0,.115.008l.038.068-.733.409-.038-.068a.1.1,0,0,0,.02-.132.382.382,0,0,0-.167-.1Z" transform="translate(-646.112 -120.488)" fill="#fff"/>
          <path id="Path_55" data-name="Path 55" d="M667.74,124.135l-.611.244a.113.113,0,0,0-.072.065.285.285,0,0,0,0,.132L667,124.6l-.287-.72.058-.024a.276.276,0,0,0,.092.1.116.116,0,0,0,.1,0l1.175-.469.029.073a.159.159,0,0,0-.052.212l.254.634a.2.2,0,0,0,.068.1.192.192,0,0,0,.116.022l.023.056a2.544,2.544,0,0,1-1.166,1.048,1.478,1.478,0,0,1-1.121.035,2.008,2.008,0,0,1-1.022-2.409,1.525,1.525,0,0,1,.9-.844,1.7,1.7,0,0,1,.42-.111,2.622,2.622,0,0,1,.493-.006.532.532,0,0,0,.2-.008.152.152,0,0,0,.068-.088l.064.014.006.857-.066-.013a.339.339,0,0,0-.059-.1.3.3,0,0,0-.1-.055.961.961,0,0,0-.4-.048,1.333,1.333,0,0,0-.433.088.911.911,0,0,0-.536.529,1.233,1.233,0,0,0,.036.929,1.2,1.2,0,0,0,.6.678.949.949,0,0,0,.789.006,1.51,1.51,0,0,0,.381-.22,1.253,1.253,0,0,0,.28-.3Z" transform="translate(-649.066 -119.599)" fill="#fff"/>
          <path id="Path_56" data-name="Path 56" d="M674.739,122.2l.518.594-.04.054c-.045-.033-.079-.047-.1-.042a.641.641,0,0,0-.166.158,2.536,2.536,0,0,1-.478.444,1.592,1.592,0,0,1-.512.2,1.465,1.465,0,0,1-1.092-.132,1.525,1.525,0,0,1-.485-.442,2.034,2.034,0,0,1-.337-.756,1.922,1.922,0,0,1,.04-1.089,1.42,1.42,0,0,1,1.1-.942,1.587,1.587,0,0,1,.547-.041,2.576,2.576,0,0,1,.625.192.63.63,0,0,0,.218.068c.023-.005.047-.032.074-.082l.059.032-.205.761-.062-.031a.564.564,0,0,0-.011-.065.209.209,0,0,0-.077-.119.851.851,0,0,0-.2-.107,1.246,1.246,0,0,0-.768-.074.955.955,0,0,0-.646.442,1.352,1.352,0,0,0,.392,1.7.956.956,0,0,0,.773.115,1.248,1.248,0,0,0,.659-.4.86.86,0,0,0,.135-.185.215.215,0,0,0,.018-.141.548.548,0,0,0-.019-.061Z" transform="translate(-652.232 -118.677)" fill="#fff"/>
          <path id="Path_57" data-name="Path 57" d="M679.945,121.082l-1.529.154.12,1.195a.2.2,0,0,0,.039.11.184.184,0,0,0,.1.052l.008.078-.828.083-.008-.077a.193.193,0,0,0,.091-.073.2.2,0,0,0,.016-.114l-.283-2.809a.158.158,0,0,0-.142-.163l-.008-.078.828-.083.008.078a.174.174,0,0,0-.091.071.2.2,0,0,0-.016.115l.107,1.068,1.529-.154-.107-1.068a.2.2,0,0,0-.038-.11.177.177,0,0,0-.1-.052l-.008-.078.828-.083.008.077a.157.157,0,0,0-.106.187l.282,2.809a.2.2,0,0,0,.038.109.187.187,0,0,0,.1.053l.008.078-.827.083-.007-.077a.18.18,0,0,0,.09-.072.191.191,0,0,0,.017-.115Z" transform="translate(-654.796 -118.188)" fill="#fff"/>
          <path id="Path_58" data-name="Path 58" d="M686.342,119.027l-.01,1.444a1.59,1.59,0,0,1-.161.792,1.244,1.244,0,0,1-1.164.466,1.587,1.587,0,0,1-.972-.263.765.765,0,0,1-.271-.407,2.174,2.174,0,0,1-.07-.606l.012-1.867a.2.2,0,0,0-.027-.115.2.2,0,0,0-.1-.064v-.078l.834.005v.078a.179.179,0,0,0-.1.062.2.2,0,0,0-.03.115l-.011,1.662a2.616,2.616,0,0,0,.023.426.542.542,0,0,0,.095.231.951.951,0,0,0,1.283.009.557.557,0,0,0,.1-.23,2.536,2.536,0,0,0,.028-.425l.011-1.661a.2.2,0,0,0-.026-.115.19.19,0,0,0-.1-.064v-.078l.784,0v.078a.192.192,0,0,0-.1.063.2.2,0,0,0-.028.114l0,.178a.738.738,0,0,0,.12-.153.948.948,0,0,0,.1-.321.557.557,0,0,1-.137.025.24.24,0,0,1-.206-.113.507.507,0,0,1-.076-.294.473.473,0,0,1,.081-.287.248.248,0,0,1,.21-.106.292.292,0,0,1,.269.182.858.858,0,0,1,.079.391A1.208,1.208,0,0,1,686.342,119.027Zm-.774-1.659v.066a.132.132,0,0,0-.116.068l-.28.42a.07.07,0,0,0-.012.039c0,.026.013.039.041.039h.008v.066l-.424,0V118a.1.1,0,0,0,.067-.017.166.166,0,0,0,.038-.071l.132-.4a.109.109,0,0,0,.008-.037c0-.026-.018-.041-.055-.047v-.066Z" transform="translate(-657.6 -117.364)" fill="#fff"/>
          <path id="Path_59" data-name="Path 59" d="M689.828,120.47l-.3,2a.205.205,0,0,0,.01.118.192.192,0,0,0,.087.077l-.011.077-.774-.114.011-.077a.189.189,0,0,0,.106-.048.2.2,0,0,0,.044-.11l.412-2.79a.157.157,0,0,0-.1-.192l.011-.078.9.133-.011.077a.109.109,0,0,0-.1.1.226.226,0,0,0,.035.136l1.175,2.105.288-1.956a.193.193,0,0,0-.011-.115.187.187,0,0,0-.087-.077l.011-.078.775.114-.011.077a.2.2,0,0,0-.106.048.2.2,0,0,0-.044.107l-.411,2.79a.2.2,0,0,0,.01.118.189.189,0,0,0,.087.077l-.011.077-.83-.122.011-.077a.1.1,0,0,0,.1-.092.386.386,0,0,0-.07-.183Z" transform="translate(-660.035 -118.277)" fill="#fff"/>
          <path id="Path_60" data-name="Path 60" d="M697.261,123.268l-.633-.179a.112.112,0,0,0-.1.008.277.277,0,0,0-.081.1l-.06-.017.211-.747.06.017a.271.271,0,0,0,.015.132.115.115,0,0,0,.078.056l1.217.343-.021.076a.2.2,0,0,0-.112.034.194.194,0,0,0-.059.1l-.185.657a.2.2,0,0,0,0,.118.19.19,0,0,0,.078.088l-.017.059a2.545,2.545,0,0,1-1.564.122,1.48,1.48,0,0,1-.911-.655,2.008,2.008,0,0,1,.656-2.533,1.526,1.526,0,0,1,1.231-.119,1.7,1.7,0,0,1,.4.168,2.544,2.544,0,0,1,.395.295.521.521,0,0,0,.164.115.152.152,0,0,0,.107-.028l.043.05-.518.683-.045-.05a.322.322,0,0,0,.015-.116.311.311,0,0,0-.044-.1.971.971,0,0,0-.284-.279,1.339,1.339,0,0,0-.4-.194.908.908,0,0,0-.746.093,1.231,1.231,0,0,0-.537.758,1.2,1.2,0,0,0,.06.9.952.952,0,0,0,.622.485,1.525,1.525,0,0,0,.436.057,1.275,1.275,0,0,0,.4-.066Z" transform="translate(-662.864 -118.982)" fill="#fff"/>
          <path id="Path_61" data-name="Path 61" d="M703.034,125.186l1.448-1.495a.627.627,0,0,0,.12-.157.14.14,0,0,0-.061-.178l.032-.071.832.374-.032.071a.175.175,0,0,0-.134.006,1.609,1.609,0,0,0-.215.2l-1.864,1.893a.825.825,0,0,0-.139.165.135.135,0,0,0,.052.184l-.032.071-.837-.377.032-.071a.136.136,0,0,0,.174-.085.844.844,0,0,0,.03-.211l.18-2.651a1.6,1.6,0,0,0,.005-.292.178.178,0,0,0-.084-.1l.032-.071.864.389-.032.071c-.087-.016-.145.008-.173.072a.6.6,0,0,0-.038.194Z" transform="translate(-666.219 -119.688)" fill="#fff"/>
          <path id="Path_62" data-name="Path 62" d="M705.473,127.63l1.351-2.476a.2.2,0,0,0,.029-.111.193.193,0,0,0-.055-.1l.037-.068.73.4-.038.068a.182.182,0,0,0-.116.008.2.2,0,0,0-.078.087l-1.35,2.476a.2.2,0,0,0-.031.115.185.185,0,0,0,.055.1l-.038.068-.73-.4.037-.068a.158.158,0,0,0,.195-.1Z" transform="translate(-667.625 -120.839)" fill="#fff"/>
          <path id="Path_63" data-name="Path 63" d="M708.093,127.565l-.5.766,1.438.931a.117.117,0,0,0,.095.02.28.28,0,0,0,.108-.075l.053.034-.468.722-.053-.034a.277.277,0,0,0,.024-.13.117.117,0,0,0-.057-.077l-2.032-1.315.042-.066a.157.157,0,0,0,.2-.081l1.532-2.366a.2.2,0,0,0,.039-.111.188.188,0,0,0-.048-.106l.043-.066,1.993,1.29a.113.113,0,0,0,.094.019.283.283,0,0,0,.11-.076l.053.034-.468.723-.053-.034a.263.263,0,0,0,.023-.128.116.116,0,0,0-.057-.077l-1.4-.906-.429.663.908.588a.116.116,0,0,0,.094.02.276.276,0,0,0,.109-.075l.053.034-.458.707-.053-.034a.28.28,0,0,0,.023-.129.116.116,0,0,0-.056-.078Zm1.539-1.559-.41-.265.035-.055a.121.121,0,0,0,.059.021.872.872,0,0,0,.111-.034l.417-.163a.1.1,0,0,0,.052-.04c.015-.023,0-.047-.032-.07l.036-.055.518.335-.036.055c-.035-.017-.06-.015-.073.005a.128.128,0,0,0-.011.074l.024.5a.1.1,0,0,0,.047.089l-.036.055-.47-.3.035-.055c.036.019.06.02.071,0a.189.189,0,0,0,0-.063v-.3l-.291.119a.071.071,0,0,0-.039.027c-.013.02,0,.042.025.066Z" transform="translate(-668.303 -121.058)" fill="#fff"/>
          <path id="Path_64" data-name="Path 64" d="M712.722,130.1l-1.3,1.556a.2.2,0,0,0-.053.106.192.192,0,0,0,.035.112l-.05.06-.6-.5.049-.06a.193.193,0,0,0,.115.014.2.2,0,0,0,.1-.071l1.8-2.167a.2.2,0,0,0,.052-.1.192.192,0,0,0-.035-.111l.05-.06.7.58-.05.06a.109.109,0,0,0-.136.033.218.218,0,0,0-.041.134l-.094,2.409,1.265-1.518a.157.157,0,0,0,.017-.215l.05-.06.6.5-.049.06a.192.192,0,0,0-.116-.013.19.19,0,0,0-.093.069l-1.805,2.167a.2.2,0,0,0-.053.106.19.19,0,0,0,.034.111l-.05.06-.645-.537.05-.06a.1.1,0,0,0,.13-.028.385.385,0,0,0,.035-.192Z" transform="translate(-670.178 -122.692)" fill="#fff"/>
          <path id="Path_65" data-name="Path 65" d="M718.011,136.276l1.93-.777a.631.631,0,0,0,.174-.1.139.139,0,0,0,.016-.187l.059-.052.607.679-.059.052a.178.178,0,0,0-.125-.048,1.607,1.607,0,0,0-.277.093l-2.474.972a.793.793,0,0,0-.193.095.134.134,0,0,0-.027.189l-.059.052-.611-.684.058-.052a.136.136,0,0,0,.193-.008.815.815,0,0,0,.114-.18l1.242-2.348a1.6,1.6,0,0,0,.123-.265.176.176,0,0,0-.034-.129l.058-.052.631.706-.058.052a.14.14,0,0,0-.188,0,.61.61,0,0,0-.113.162Z" transform="translate(-673.055 -124.847)" fill="#fff"/>
          <path id="Path_66" data-name="Path 66" d="M719.454,139.941l2.239-1.715a.2.2,0,0,0,.072-.09.2.2,0,0,0-.009-.116l.062-.048.505.66-.062.048a.174.174,0,0,0-.109-.04.2.2,0,0,0-.107.047l-2.239,1.715a.2.2,0,0,0-.075.093.179.179,0,0,0,.009.115l-.062.047-.506-.66.062-.048a.2.2,0,0,0,.11.039A.2.2,0,0,0,719.454,139.941Z" transform="translate(-674.074 -126.903)" fill="#fff"/>
          <path id="Path_67" data-name="Path 67" d="M720.648,142.739a.228.228,0,0,1,.024.206.369.369,0,0,1-.156.19.336.336,0,0,1-.222.057.222.222,0,0,1-.2-.3.345.345,0,0,1,.148-.185.35.35,0,0,1,.227-.062A.237.237,0,0,1,720.648,142.739Zm1.1-1.481-.764.5.938,1.435a.113.113,0,0,0,.077.056.279.279,0,0,0,.13-.024l.034.052-.721.471-.034-.052a.272.272,0,0,0,.074-.109.115.115,0,0,0-.02-.094l-1.325-2.026.066-.043a.2.2,0,0,0,.107.047.2.2,0,0,0,.111-.04l2.36-1.542a.2.2,0,0,0,.081-.085.193.193,0,0,0,0-.117l.066-.042,1.3,1.987a.115.115,0,0,0,.079.056.282.282,0,0,0,.13-.025l.034.053-.721.471-.034-.052a.272.272,0,0,0,.072-.108.114.114,0,0,0-.02-.094l-.911-1.4-.662.432.591.906a.117.117,0,0,0,.078.056.28.28,0,0,0,.13-.024l.034.052-.7.46-.034-.052a.286.286,0,0,0,.074-.108.112.112,0,0,0-.019-.095Zm2.039-.8-.266-.409.055-.036a.122.122,0,0,0,.044.044.962.962,0,0,0,.115.013l.447.02a.1.1,0,0,0,.063-.016c.023-.015.023-.04,0-.077l.055-.036.337.517-.055.036c-.025-.03-.048-.038-.069-.025a.123.123,0,0,0-.04.063l-.181.468a.106.106,0,0,0,.007.1l-.055.036-.307-.469.055-.036c.024.032.046.042.063.031a.182.182,0,0,0,.03-.057l.121-.274-.315-.01a.076.076,0,0,0-.047.01c-.02.013-.021.037,0,.07Z" transform="translate(-674.495 -127.676)" fill="#fff"/>
          <path id="Path_68" data-name="Path 68" d="M726.167,145.518l-2.246,1.155a.2.2,0,0,0-.09.077.2.2,0,0,0-.012.116l-.069.035-.38-.74.069-.036a.193.193,0,0,0,.1.058.2.2,0,0,0,.115-.028L725.9,145l-.379-.736a.115.115,0,0,0-.07-.065.258.258,0,0,0-.13.01l-.028-.056.766-.394.029.055a.3.3,0,0,0-.088.1.114.114,0,0,0,.01.095L727.032,146a.118.118,0,0,0,.073.066.278.278,0,0,0,.134-.012l.028.055-.766.394-.029-.056a.264.264,0,0,0,.084-.1.12.12,0,0,0-.012-.1Z" transform="translate(-676.016 -129.582)" fill="#fff"/>
          <path id="Path_69" data-name="Path 69" d="M727.618,150.739l-1.913.666a.2.2,0,0,0-.1.063.19.19,0,0,0-.027.113l-.074.025-.257-.739.073-.025a.191.191,0,0,0,.092.071.2.2,0,0,0,.118-.012l2.664-.926a.157.157,0,0,0,.125-.175l.073-.026.3.855-.074.026a.108.108,0,0,0-.134-.042.219.219,0,0,0-.1.093l-1.322,2.016,1.867-.649a.159.159,0,0,0,.125-.176l.074-.026.257.739-.074.026a.156.156,0,0,0-.207-.06l-2.665.926a.2.2,0,0,0-.1.063.191.191,0,0,0-.028.113l-.074.026-.275-.793.073-.026a.1.1,0,0,0,.126.044.383.383,0,0,0,.13-.147Z" transform="translate(-676.886 -132.365)" fill="#fff"/>
          <path id="Path_70" data-name="Path 70" d="M728.273,158.656l-.251-1.184-.5-.078a.457.457,0,0,0-.158,0c-.07.014-.11.068-.119.158l-.076.016-.183-.863.076-.016a.22.22,0,0,0,.092.1.718.718,0,0,0,.205.052l2.707.428a.584.584,0,0,0,.2,0,.165.165,0,0,0,.134-.144l.077-.016.2.924-.076.017a.147.147,0,0,0-.164-.083.422.422,0,0,0-.15.069l-2.3,1.526a.9.9,0,0,0-.2.157.232.232,0,0,0-.05.145l-.077.017-.2-.959.076-.016a.143.143,0,0,0,.175.095.48.48,0,0,0,.14-.07Zm.411-.259,1.071-.669-1.252-.181Z" transform="translate(-677.692 -135.564)" fill="#fff"/>
          <path id="Path_71" data-name="Path 71" d="M728.36,163.6l2.173-1.151-2.039.155a.2.2,0,0,0-.112.036.193.193,0,0,0-.056.1l-.078.006-.059-.78.078-.006a.187.187,0,0,0,.07.092.2.2,0,0,0,.116.019l2.812-.214a.2.2,0,0,0,.11-.035.19.19,0,0,0,.055-.1l.078-.006.078,1.024-.078.006a.127.127,0,0,0-.141-.082.3.3,0,0,0-.11.036l-1.614.851,1.7.61a.489.489,0,0,0,.167.036.1.1,0,0,0,.1-.106l.078-.006.076,1-.078.005a.192.192,0,0,0-.07-.092.194.194,0,0,0-.114-.018l-2.812.214a.2.2,0,0,0-.113.036.188.188,0,0,0-.055.1l-.078.006-.063-.829.078-.006a.181.181,0,0,0,.07.092.2.2,0,0,0,.117.019l2.039-.155Z" transform="translate(-678.247 -137.893)" fill="#fff"/>
        </g>
      </g>
      <g id="Group_31" data-name="Group 31" transform="translate(6.66 9.657)">
        <g id="Group_26" data-name="Group 26" transform="translate(19.042 3.303)">
          <g id="Group_25" data-name="Group 25" transform="translate(0 0.459)">
            <rect id="Rectangle_1" data-name="Rectangle 1" width="0.238" height="10.058" transform="translate(0.916)" fill="#fff"/>
            <path id="Path_72" data-name="Path 72" d="M684.828,161.107a1.036,1.036,0,1,1-1.464,0,1.036,1.036,0,0,1,1.464,0" transform="translate(-683.06 -150.89)" fill="#fff"/>
          </g>
          <path id="Path_73" data-name="Path 73" d="M685.064,152.038l-.548.119-.548-.119s.429-.346.429-3.942-.229-5.752-.229-5.752l.348-.851.348.851s-.228,2.157-.228,5.752.428,3.942.428,3.942" transform="translate(-683.48 -141.493)" fill="#fff"/>
        </g>
        <g id="Group_30" data-name="Group 30">
          <g id="Group_27" data-name="Group 27">
            <path id="Path_74" data-name="Path 74" d="M657.228,158.738a14.664,14.664,0,0,0-1.325,3.381A12.159,12.159,0,0,1,657.228,158.738Z" transform="translate(-651.448 -146.172)" fill="#fff"/>
            <path id="Path_75" data-name="Path 75" d="M650.459,183.538a.563.563,0,0,0,.029.053.338.338,0,0,1-.027-.046l0-.007a20.146,20.146,0,0,1-1.063-2.389c-.058-.16-.115-.317-.169-.479.055.16.112.32.171.479A20,20,0,0,0,650.459,183.538Z" transform="translate(-648.357 -156.323)" fill="#fff"/>
            <path id="Path_76" data-name="Path 76" d="M653.256,188.971c.081.125.163.25.246.373-.084-.123-.167-.248-.248-.373Z" transform="translate(-650.222 -160.166)" fill="#fff"/>
            <path id="Path_77" data-name="Path 77" d="M656.682,193.438c.11.117.224.233.336.346-.114-.113-.228-.229-.338-.346-.226-.237-.444-.479-.658-.727-.125-.145-.248-.292-.367-.44q.181.223.369.44C656.238,192.959,656.457,193.2,656.682,193.438Z" transform="translate(-651.333 -161.693)" fill="#fff"/>
            <path id="Path_78" data-name="Path 78" d="M659.45,189.757c.53.125,1.075.233,1.626.312A16.173,16.173,0,0,1,659.45,189.757Z" transform="translate(-653.09 -160.529)" fill="#fff"/>
            <path id="Path_79" data-name="Path 79" d="M663.932,199.817c.048.033.1.064.143.1-.024-.015-.047-.03-.071-.046Z" transform="translate(-655.164 -165.186)" fill="#fff"/>
            <path id="Path_80" data-name="Path 80" d="M662.055,188.364a11.71,11.71,0,0,1-1.487-.587C661.177,188.04,661.646,188.229,662.055,188.364Z" transform="translate(-653.607 -159.613)" fill="#fff"/>
            <path id="Path_81" data-name="Path 81" d="M669.92,185.208s3.64-.061,3.57-5.127l.761,4.134s-2.391,3.344-2.765,3.078A16.064,16.064,0,0,1,669.92,185.208Z" transform="translate(-657.936 -156.051)" fill="#fff"/>
            <path id="Path_82" data-name="Path 82" d="M661.884,163.69s-3.183,3.433-9.071-1.4a13.975,13.975,0,0,1-5.177-11.519c.011-.255.027-.5.048-.751a9.807,9.807,0,0,1,.215-1.366q.16-.7.368-1.372c.061-.2.123-.4.19-.59q.225-.657.49-1.293v0a20.536,20.536,0,0,1,4.579-6.736h0A20.453,20.453,0,0,1,658,135.347l.008,0a21.233,21.233,0,0,1,.581,4.393,7.165,7.165,0,0,1-.089,1.05,8.149,8.149,0,0,1-1.979,4.316c-4.171,4.5-4.388,7.409-4.455,10.049a11.5,11.5,0,0,0,2.056,6.645C657.564,166.56,661.884,163.69,661.884,163.69Z" transform="translate(-647.609 -135.343)" fill="#fff"/>
            <path id="Path_83" data-name="Path 83" d="M663.156,154s-5.321,3.351-5.808,9.609c-.32,4.114,1.2,6.152,1.2,6.152a8.013,8.013,0,0,1,1.091-7.12,11.856,11.856,0,0,1,.926-1.228c.246-.286.508-.555.778-.818a8.242,8.242,0,0,0,2.234-3.235A5.548,5.548,0,0,0,663.156,154Z" transform="translate(-652.096 -143.978)" fill="#fff"/>
            <path id="Path_84" data-name="Path 84" d="M667.818,141.493s-.011.245-.048.681c-.02.238-.048.534-.086.873-.028.249-.059.523-.1.82v0c-.376,2.9-1.327,7.851-3.636,11.363,0,0,3.692,6.989,2.429,12.514v0l0,0a17.747,17.747,0,0,1-.771,2.679.1.1,0,0,1-.007.02,11.851,11.851,0,0,1-3.024,4.2,1.792,1.792,0,0,1-1.745.378l-.075-.026c-.207-.075-.413-.156-.616-.238-.264-.109-.525-.22-.784-.339-.137-.064-.273-.128-.409-.194-.064-.03-.127-.061-.189-.093a8.021,8.021,0,0,0,5.677-2.71c-.051.052-.1.1-.152.15s-.1.094-.147.138l0,0-.039.031a7.185,7.185,0,0,1-4.972,1.883h-.015a4.566,4.566,0,0,1-2.459-.706c-.047-.031-.1-.062-.143-.1-.1-.066-.2-.136-.3-.207-.048-.031-.094-.064-.141-.1-.141-.1-.28-.2-.418-.3s-.28-.213-.418-.321c-.042-.033-.085-.068-.127-.1-.1-.078-.2-.161-.3-.245s-.167-.14-.25-.213a1.127,1.127,0,0,1-.092-.081c-.088-.075-.174-.15-.258-.229-.063-.053-.125-.11-.185-.169s-.14-.128-.207-.194c-.035-.031-.07-.064-.1-.1-.094-.09-.185-.18-.277-.272-.112-.113-.226-.229-.336-.346-.226-.237-.444-.479-.659-.727q-.188-.218-.369-.44c-.121-.149-.239-.3-.356-.451s-.231-.3-.343-.461l0,0c-.1-.141-.2-.286-.3-.431a.5.5,0,0,1-.036-.053c-.083-.123-.166-.248-.246-.373a27.577,27.577,0,0,0,5.059.8.212.212,0,0,0,.037,0c.327.022.636.033.934.034-.049,0-.1-.005-.15-.009-.172-.011-.347-.025-.521-.047-.057,0-.116-.011-.174-.019l-.049-.005c-.061-.008-.121-.014-.182-.024-.55-.079-1.1-.187-1.626-.312q-.237-.058-.472-.121a23.643,23.643,0,0,1-2.723-.923,2.084,2.084,0,0,1-1.035-.915.577.577,0,0,1-.029-.053,20,20,0,0,1-1.062-2.389c-.059-.16-.115-.319-.171-.479s-.106-.323-.158-.484-.1-.327-.147-.49c-.011-.035-.02-.07-.03-.1-.037-.131-.071-.26-.1-.391-.013-.051-.028-.1-.039-.154-.09-.356-.169-.717-.238-1.082a13.164,13.164,0,0,0,4.439,5.2c.062.042.125.087.187.128.126.084.222.145.279.18l.077.049a14.453,14.453,0,0,0,1.554.846l.059.025c.068.03.132.057.2.083l.015.008c.534.231.96.4,1.332.534l.077.027.079.026c.033.011.068.022.1.031a9.165,9.165,0,0,0,2.29.406.223.223,0,0,0,.033,0,8.011,8.011,0,0,0,.961-.018.4.4,0,0,0,.049,0c.035,0,.068-.005.1-.009q.165-.016.33-.039l.035-.005c.235-.033.472-.075.712-.13.026-.008.053-.015.079-.024s.059-.018.092-.031l.008,0a.134.134,0,0,1,.027-.009l.042-.017.033-.011a3.068,3.068,0,0,0,.873-.5l.022-.017.005-.005h0l.005-.005h0s0,0,.006-.005l0,0a.055.055,0,0,0,.013-.013c1.143-.967,1.384-2.666,1.281-4.306v0a17.626,17.626,0,0,0-.917-4.358,27.606,27.606,0,0,1-4.874,6.33s.1-.986.209-2.347c.369-.356,1.308-1.27,2.1-2.174a.338.338,0,0,0-.038-.483c-.668.8-1.514,1.65-2.017,2.142.031-.437.062-.9.09-1.375.424-.4,1.119-1.1,2.1-2.205a.342.342,0,0,0-.03-.482c-.894,1.02-1.574,1.726-2.04,2.183.026-.484.05-.971.064-1.446.45-.411,1.148-1.072,1.795-1.754a.34.34,0,0,0-.017-.481c-.595.648-1.271,1.3-1.767,1.762.017-.763.013-1.481-.025-2.072C657.923,155.469,664.855,149.133,667.818,141.493Z" transform="translate(-647.741 -138.19)" fill="#fff"/>
            <path id="Path_85" data-name="Path 85" d="M657.1,185.943l-.077-.05.06.037Z" transform="translate(-651.967 -158.741)" fill="#fff"/>
            <path id="Path_86" data-name="Path 86" d="M663.085,190.414l-.178-.022c.059.008.118.015.175.018Z" transform="translate(-654.69 -160.823)" fill="#fff"/>
          </g>
          <g id="Group_28" data-name="Group 28">
            <path id="Path_87" data-name="Path 87" d="M657.228,158.738a14.664,14.664,0,0,0-1.325,3.381A12.159,12.159,0,0,1,657.228,158.738Z" transform="translate(-651.448 -146.172)" fill="#fff"/>
            <path id="Path_88" data-name="Path 88" d="M650.459,183.538a.563.563,0,0,0,.029.053.338.338,0,0,1-.027-.046l0-.007a20.146,20.146,0,0,1-1.063-2.389c-.058-.16-.115-.317-.169-.479.055.16.112.32.171.479A20,20,0,0,0,650.459,183.538Z" transform="translate(-648.357 -156.323)" fill="#fff"/>
            <path id="Path_89" data-name="Path 89" d="M653.256,188.971c.081.125.163.25.246.373-.084-.123-.167-.248-.248-.373Z" transform="translate(-650.222 -160.166)" fill="#fff"/>
            <path id="Path_90" data-name="Path 90" d="M656.682,193.438c.11.117.224.233.336.346-.114-.113-.228-.229-.338-.346-.226-.237-.444-.479-.658-.727-.125-.145-.248-.292-.367-.44q.181.223.369.44C656.238,192.959,656.457,193.2,656.682,193.438Z" transform="translate(-651.333 -161.693)" fill="#fff"/>
            <path id="Path_91" data-name="Path 91" d="M659.45,189.757c.53.125,1.075.233,1.626.312A16.173,16.173,0,0,1,659.45,189.757Z" transform="translate(-653.09 -160.529)" fill="#fff"/>
            <path id="Path_92" data-name="Path 92" d="M664.075,199.913c-.024-.015-.047-.03-.071-.046l-.071-.049C663.98,199.85,664.028,199.881,664.075,199.913Z" transform="translate(-655.164 -165.186)" fill="#fff"/>
            <path id="Path_93" data-name="Path 93" d="M662.055,188.364a11.71,11.71,0,0,1-1.487-.587C661.177,188.04,661.646,188.229,662.055,188.364Z" transform="translate(-653.607 -159.613)" fill="#fff"/>
            <path id="Path_94" data-name="Path 94" d="M669.92,185.208s3.64-.061,3.57-5.127l.761,4.134s-2.391,3.344-2.765,3.078A16.064,16.064,0,0,1,669.92,185.208Z" transform="translate(-657.936 -156.051)" fill="#fff"/>
            <path id="Path_95" data-name="Path 95" d="M661.884,163.69s-3.183,3.433-9.071-1.4a13.975,13.975,0,0,1-5.177-11.519c.011-.255.027-.5.048-.751a9.807,9.807,0,0,1,.215-1.366q.16-.7.368-1.372c.061-.2.123-.4.19-.59q.225-.657.49-1.293v0a20.536,20.536,0,0,1,4.579-6.736h0A20.453,20.453,0,0,1,658,135.347l.008,0a21.233,21.233,0,0,1,.581,4.393,7.165,7.165,0,0,1-.089,1.05,8.149,8.149,0,0,1-1.979,4.316c-4.171,4.5-4.388,7.409-4.455,10.049a11.5,11.5,0,0,0,2.056,6.645C657.564,166.56,661.884,163.69,661.884,163.69Z" transform="translate(-647.609 -135.343)" fill="#fff"/>
            <path id="Path_96" data-name="Path 96" d="M663.156,154s-5.321,3.351-5.808,9.609c-.32,4.114,1.2,6.152,1.2,6.152a8.013,8.013,0,0,1,1.091-7.12,11.856,11.856,0,0,1,.926-1.228c.246-.286.508-.555.778-.818a8.242,8.242,0,0,0,2.234-3.235A5.548,5.548,0,0,0,663.156,154Z" transform="translate(-652.096 -143.978)" fill="#fff"/>
            <path id="Path_97" data-name="Path 97" d="M667.818,141.492s-.011.246-.048.681c-.02.238-.048.534-.086.873-.028.249-.059.523-.1.82v0c-.376,2.9-1.327,7.851-3.636,11.363,0,0,3.692,6.989,2.429,12.514v0l0,0a17.747,17.747,0,0,1-.771,2.679.1.1,0,0,1-.007.02,11.851,11.851,0,0,1-3.024,4.2,1.792,1.792,0,0,1-1.745.378l-.075-.026c-.207-.075-.413-.156-.616-.238-.264-.109-.525-.22-.784-.339-.137-.064-.273-.128-.409-.194-.064-.03-.127-.061-.189-.093a8.021,8.021,0,0,0,5.677-2.71c-.051.052-.1.1-.152.15-.017.017-.035.035-.053.052a6.076,6.076,0,0,0,1.1-1.488c-2.5,3.416-10.781,1.194-10.781,1.194a1.127,1.127,0,0,1-.092-.081c-.088-.075-.174-.15-.258-.229-.063-.053-.125-.11-.185-.169s-.14-.128-.207-.194c-.035-.031-.07-.064-.1-.1-.094-.09-.185-.18-.277-.272-.112-.113-.226-.229-.336-.346-.226-.237-.444-.479-.659-.727q-.188-.218-.369-.44c-.121-.149-.239-.3-.356-.451s-.231-.3-.343-.461l0,0c-.1-.141-.2-.286-.3-.431a.5.5,0,0,1-.036-.053c-.083-.123-.166-.248-.246-.373a27.575,27.575,0,0,0,5.059.8.279.279,0,0,0,.037,0c.327.022.636.033.934.035-.049,0-.1-.005-.15-.009-.172-.011-.347-.026-.521-.048-.028,0-.055,0-.083-.007l-.092-.011-.049-.005c-.061-.008-.121-.014-.182-.024-.55-.079-1.1-.187-1.626-.312q-.237-.058-.472-.121a23.645,23.645,0,0,1-2.723-.923,2.084,2.084,0,0,1-1.035-.915.581.581,0,0,1-.029-.053,20,20,0,0,1-1.062-2.389c-.059-.16-.115-.319-.171-.479s-.106-.323-.158-.484-.1-.327-.147-.49c-.011-.035-.02-.07-.03-.1-.037-.131-.071-.261-.1-.391-.013-.051-.028-.1-.039-.154-.09-.356-.169-.717-.238-1.082a13.162,13.162,0,0,0,4.438,5.2c.062.042.125.088.188.128.126.084.222.145.279.179l.026.017.051.033a14.346,14.346,0,0,0,1.554.845l.059.026c.068.03.132.057.2.083l.015.008c.534.231.96.4,1.332.534l.077.027.079.026c.033.011.068.022.1.031a9.189,9.189,0,0,0,2.29.406.225.225,0,0,0,.033,0,8.007,8.007,0,0,0,.961-.018.4.4,0,0,0,.049,0c.035,0,.068-.005.1-.009q.165-.016.33-.039l.035-.005c.235-.033.472-.075.712-.13.026-.008.053-.015.079-.024s.059-.018.092-.031l.008,0a.131.131,0,0,1,.027-.009l.042-.017.033-.011a3.068,3.068,0,0,0,.873-.5l.022-.017.005-.005h0l.005-.005h0s0,0,.006-.005l0,0h0l.007-.009h0v0l0,0h0c1.141-.968,1.382-2.664,1.279-4.3v-.015a17.628,17.628,0,0,0-.917-4.348,27.606,27.606,0,0,1-4.874,6.33s.1-.986.209-2.347c.369-.356,1.308-1.27,2.1-2.174a.338.338,0,0,0-.038-.483c-.668.8-1.514,1.65-2.017,2.142.031-.437.062-.9.09-1.375.424-.4,1.119-1.1,2.1-2.205a.342.342,0,0,0-.03-.482c-.894,1.02-1.574,1.726-2.04,2.183.026-.484.05-.971.064-1.446.45-.411,1.148-1.072,1.795-1.754a.34.34,0,0,0-.017-.481c-.595.648-1.271,1.3-1.767,1.762.017-.763.013-1.481-.025-2.072C657.923,155.468,664.855,149.133,667.818,141.492Z" transform="translate(-647.741 -138.189)" fill="#fff"/>
            <path id="Path_98" data-name="Path 98" d="M657.1,185.943l-.077-.05.06.037Z" transform="translate(-651.967 -158.741)" fill="#fff"/>
            <path id="Path_99" data-name="Path 99" d="M663.085,190.414l-.178-.022c.059.008.118.015.175.018Z" transform="translate(-654.69 -160.823)" fill="#fff"/>
          </g>
          <g id="Group_29" data-name="Group 29" transform="translate(20.078)">
            <path id="Path_100" data-name="Path 100" d="M711.606,158.738a14.664,14.664,0,0,1,1.325,3.381A12.164,12.164,0,0,0,711.606,158.738Z" transform="translate(-697.309 -146.172)" fill="#fff"/>
            <path id="Path_101" data-name="Path 101" d="M718.429,183.538a.562.562,0,0,1-.029.053.359.359,0,0,0,.027-.046l0-.007a20.146,20.146,0,0,0,1.062-2.389c.059-.16.115-.317.169-.479-.055.16-.112.32-.171.479A19.979,19.979,0,0,1,718.429,183.538Z" transform="translate(-700.453 -156.323)" fill="#fff"/>
            <path id="Path_102" data-name="Path 102" d="M716.507,188.971c-.081.125-.163.25-.246.373.085-.123.167-.248.248-.373Z" transform="translate(-699.463 -160.166)" fill="#fff"/>
            <path id="Path_103" data-name="Path 103" d="M712.119,193.438c-.11.117-.224.233-.336.346.114-.113.228-.229.338-.346.226-.237.444-.479.659-.727.125-.145.248-.292.367-.44q-.181.223-.369.44C712.563,192.959,712.344,193.2,712.119,193.438Z" transform="translate(-697.39 -161.693)" fill="#fff"/>
            <path id="Path_104" data-name="Path 104" d="M709.125,189.757c-.53.125-1.075.233-1.626.312A16.188,16.188,0,0,0,709.125,189.757Z" transform="translate(-695.407 -160.529)" fill="#fff"/>
            <path id="Path_105" data-name="Path 105" d="M705.921,199.817c-.048.033-.1.064-.143.1.024-.015.047-.03.071-.046Z" transform="translate(-694.611 -165.186)" fill="#fff"/>
            <path id="Path_106" data-name="Path 106" d="M706.639,188.364a11.718,11.718,0,0,0,1.487-.587C707.518,188.04,707.048,188.229,706.639,188.364Z" transform="translate(-695.009 -159.613)" fill="#fff"/>
            <path id="Path_107" data-name="Path 107" d="M696.323,185.208s-3.64-.061-3.57-5.127l-.761,4.134s2.391,3.344,2.765,3.078A16.064,16.064,0,0,0,696.323,185.208Z" transform="translate(-688.23 -156.051)" fill="#fff"/>
            <path id="Path_108" data-name="Path 108" d="M695.79,163.69s3.183,3.433,9.071-1.4a13.975,13.975,0,0,0,5.177-11.519c-.011-.255-.027-.5-.048-.751a9.807,9.807,0,0,0-.215-1.366q-.16-.7-.368-1.372c-.061-.2-.124-.4-.19-.59q-.225-.657-.49-1.293v0a20.532,20.532,0,0,0-4.579-6.736h0a20.451,20.451,0,0,0-4.471-3.312l-.008,0a21.23,21.23,0,0,0-.581,4.393,7.164,7.164,0,0,0,.089,1.05,8.15,8.15,0,0,0,1.979,4.316c4.171,4.5,4.388,7.409,4.455,10.049a11.5,11.5,0,0,1-2.056,6.645C700.111,166.56,695.79,163.69,695.79,163.69Z" transform="translate(-689.988 -135.343)" fill="#fff"/>
            <path id="Path_109" data-name="Path 109" d="M701.326,154s5.321,3.351,5.807,9.609c.32,4.114-1.2,6.152-1.2,6.152a8.012,8.012,0,0,0-1.091-7.12,11.821,11.821,0,0,0-.926-1.228c-.245-.286-.508-.555-.778-.818a8.24,8.24,0,0,1-2.234-3.235A5.547,5.547,0,0,1,701.326,154Z" transform="translate(-692.308 -143.978)" fill="#fff"/>
            <path id="Path_110" data-name="Path 110" d="M684.988,141.493s.011.245.048.681c.02.238.048.534.086.873.028.249.059.523.1.82v0c.376,2.9,1.327,7.851,3.636,11.363,0,0-3.692,6.989-2.429,12.514v0l0,0a17.763,17.763,0,0,0,.771,2.679.077.077,0,0,0,.008.02,11.841,11.841,0,0,0,3.024,4.2,1.791,1.791,0,0,0,1.745.378l.075-.026c.207-.075.413-.156.616-.238.264-.109.525-.22.784-.339.138-.064.273-.128.409-.194.064-.03.127-.061.189-.093a8.021,8.021,0,0,1-5.677-2.71c.051.052.1.1.152.15s.1.094.147.138l0,0,.039.031a7.185,7.185,0,0,0,4.972,1.883h.015a4.566,4.566,0,0,0,2.459-.706c.047-.031.1-.062.143-.1.1-.066.2-.136.3-.207.048-.031.094-.064.141-.1.141-.1.28-.2.418-.3s.28-.213.418-.321c.042-.033.085-.068.127-.1.1-.078.2-.161.3-.245s.167-.14.25-.213a1.117,1.117,0,0,0,.092-.081c.088-.075.174-.15.258-.229.063-.053.125-.11.185-.169s.14-.128.207-.194c.035-.031.07-.064.1-.1.094-.09.185-.18.277-.272.112-.113.226-.229.336-.346.226-.237.444-.479.658-.727q.188-.218.369-.44c.121-.149.239-.3.356-.451s.231-.3.343-.461l0,0c.1-.141.2-.286.3-.431a.511.511,0,0,0,.036-.053c.083-.123.166-.248.246-.373a27.575,27.575,0,0,1-5.059.8.212.212,0,0,1-.037,0c-.326.022-.636.033-.934.034.049,0,.1-.005.15-.009.172-.011.347-.025.521-.047.057,0,.116-.011.175-.019l.049-.005c.061-.008.121-.014.182-.024.551-.079,1.1-.187,1.626-.312q.237-.058.472-.121a23.647,23.647,0,0,0,2.723-.923,2.084,2.084,0,0,0,1.035-.915.563.563,0,0,0,.029-.053,20,20,0,0,0,1.062-2.389c.059-.16.115-.319.171-.479s.106-.323.158-.484.1-.327.147-.49c.011-.035.02-.07.03-.1.036-.131.072-.26.1-.391.013-.051.028-.1.039-.154.09-.356.169-.717.238-1.082a13.163,13.163,0,0,1-4.439,5.2c-.062.042-.125.087-.187.128-.126.084-.222.145-.279.18l-.077.049a14.46,14.46,0,0,1-1.555.846l-.058.025c-.068.03-.132.057-.2.083l-.014.008c-.534.231-.96.4-1.332.534l-.077.027-.079.026c-.033.011-.068.022-.1.031a9.166,9.166,0,0,1-2.29.406.221.221,0,0,1-.033,0,8.009,8.009,0,0,1-.961-.018.4.4,0,0,1-.049,0c-.035,0-.068-.005-.1-.009q-.165-.016-.33-.039l-.035-.005c-.235-.033-.472-.075-.712-.13-.026-.008-.053-.015-.079-.024s-.058-.018-.092-.031l-.008,0a.138.138,0,0,0-.027-.009l-.042-.017-.033-.011a3.069,3.069,0,0,1-.873-.5l-.022-.017-.005-.005h0l-.005-.005h0s0,0-.005-.005l0,0a.057.057,0,0,1-.013-.013c-1.143-.967-1.384-2.666-1.281-4.306v0a17.626,17.626,0,0,1,.917-4.358,27.606,27.606,0,0,0,4.874,6.33s-.1-.986-.209-2.347c-.369-.356-1.308-1.27-2.1-2.174a.338.338,0,0,1,.038-.483c.668.8,1.514,1.65,2.017,2.142-.031-.437-.062-.9-.09-1.375-.424-.4-1.119-1.1-2.1-2.205a.342.342,0,0,1,.03-.482c.894,1.02,1.574,1.726,2.041,2.183-.026-.484-.05-.971-.064-1.446-.45-.411-1.148-1.072-1.795-1.754a.34.34,0,0,1,.017-.481c.595.648,1.271,1.3,1.767,1.762-.017-.763-.013-1.481.025-2.072C694.883,155.469,687.951,149.133,684.988,141.493Z" transform="translate(-684.988 -138.19)" fill="#fff"/>
            <path id="Path_111" data-name="Path 111" d="M712.808,185.943l.077-.05-.06.037Z" transform="translate(-697.865 -158.741)" fill="#fff"/>
            <path id="Path_112" data-name="Path 112" d="M706.738,190.414l.178-.022c-.059.008-.118.015-.175.018Z" transform="translate(-695.055 -160.823)" fill="#fff"/>
          </g>
          <path id="Path_113" data-name="Path 113" d="M670.2,197.174c-.059.064-.121.131-.185.2a.1.1,0,0,1-.02.018c-.024.024-.049.046-.073.068l0,0-.039.031a7.185,7.185,0,0,1-4.972,1.883h-.015a4.566,4.566,0,0,1-2.459-.706c-.047-.031-.1-.062-.143-.1-.1-.066-.2-.136-.3-.207-.048-.031-.093-.064-.141-.1-.141-.1-.28-.2-.418-.3s-.28-.213-.418-.321c-.042-.033-.085-.068-.127-.1-.1-.078-.2-.161-.3-.245-.066-.055-.13-.108-.2-.165a9.767,9.767,0,0,0,3.2,1.206A9.085,9.085,0,0,0,670.2,197.174Z" transform="translate(-653.524 -163.94)" fill="#fff"/>
          <path id="Path_114" data-name="Path 114" d="M691.294,197.174c.059.064.121.131.185.2a.092.092,0,0,0,.02.018c.024.024.05.046.074.068l0,0,.038.031a7.185,7.185,0,0,0,4.973,1.883h.015a4.564,4.564,0,0,0,2.458-.706c.048-.031.1-.062.143-.1.1-.066.2-.136.3-.207.048-.031.094-.064.141-.1.141-.1.281-.2.418-.3s.281-.213.418-.321c.042-.033.084-.068.127-.1.1-.078.2-.161.3-.245.066-.055.131-.108.194-.165a9.762,9.762,0,0,1-3.2,1.206A9.085,9.085,0,0,1,691.294,197.174Z" transform="translate(-667.829 -163.94)" fill="#fff"/>
        </g>
      </g>
    </g>
  </g>
</svg>
